# xmcd CD database file
#
# Track frame offsets:
#	183
#	18445
#	40748
#	60590
#	85238
#	115988
#	141285
#	168350
#	191183
#	210160
#	248528
#
# Disc length: 3544 seconds
#
# Revision: 0
# Processed by: cddbd v1.4PL0 Copyright (c) Steve Scherf et al.
# Submitted via: CDex 1.50
#
DISCID=8d0dd60b
DTITLE=Tutu - Mr. Jazzman
DYEAR=1991
DGENRE=Jazz
TTITLE0=Hysteric Girl
TTITLE1=Just So
TTITLE2=Blues for Boris
TTITLE3=Steadilly Unsteady
TTITLE4=King of Hearts
TTITLE5=Adamenka
TTITLE6=Amnesty Blues
TTITLE7=All or Nothing
TTITLE8=Mr. Jazzman
TTITLE9=Θαvo
TTITLE10=August
EXTD=YEAR: 1991
EXTT0=
EXTT1=
EXTT2=
EXTT3=
EXTT4=
EXTT5=
EXTT6=
EXTT7=
EXTT8=
EXTT9=
EXTT10=
PLAYORDER=
